# xmcd
#
# Track frame offsets:
#	150
#	14670
#	27388
#	44149
#	55242
#	70753
#	88387
#	104130
#	119917
#	136566
#	145177
#	163087
#
# Disc length: 2378 seconds
#
# Revision: 1
# Processed by: cddbd v1.5.2PL0 Copyright (c) Steve Scherf et al.
# Submitted via: audiograbber 1.83.01
#
DISCID=bb09480c
DTITLE=Southern Avenue - Keep on 
DYEAR=2019
DGENRE=
TTITLE0=Keep on
TTITLE1=Whiskey love
TTITLE2=Savior
TTITLE3=Switchup
TTITLE4=The tea i sip
TTITLE5=Lucky
TTITLE6=Jive
TTITLE7=Too good for you
TTITLE8=We are not so different
TTITLE9=We've got the music
TTITLE10=She gets me high
TTITLE11=We're gonna make it
EXTD=
EXTT0=
EXTT1=
EXTT2=
EXTT3=
EXTT4=
EXTT5=
EXTT6=
EXTT7=
EXTT8=
EXTT9=
EXTT10=
EXTT11=
PLAYORDER=
